<?xml version="1.0" encoding="utf-8"?>
<svg xmlns="http://www.w3.org/2000/svg" viewBox="302 273 420 487">
  <polygon fill="#006ab0" points="511,543 511,544 510,545 510,546 509,547 509,548 508,549 508,550 507,551 507,552 506,553 506,554 505,555 505,556 504,557 504,558 503,559 503,561 502,562 502,563 501,564 501,565 500,566 500,567 499,568 499,569 498,570 498,571 497,572 497,573 496,574 496,575 495,576 495,578 494,579 494,580 493,581 493,582 492,583 492,584 491,585 491,586 490,587 534,587 533,586 533,585 532,584 532,583 531,582 531,581 530,580 530,579 529,578 529,577 528,576 528,575 527,574 527,573 526,572 526,571 525,570 525,569 524,568 524,567 523,566 523,565 522,564 522,563 521,562 521,561 520,560 520,559 519,558 519,557 518,556 518,555 517,554 517,553 516,552 516,551 515,550 515,549 514,548 514,547 513,546 513,545 512,544 512,543"/>
  <polygon fill="#006ab0" points="501,376 500,377 495,377 494,378 491,378 490,379 488,379 487,380 485,380 484,381 482,381 481,382 480,382 479,383 478,383 477,384 476,384 475,385 474,385 472,387 471,387 470,388 469,388 466,391 465,391 460,396 459,396 457,398 457,399 451,405 451,406 448,409 448,410 446,412 446,413 445,414 445,415 443,417 443,418 442,419 442,420 441,421 441,423 440,424 440,425 439,426 439,428 438,429 438,431 437,432 437,434 436,435 436,438 435,439 435,443 434,444 434,452 433,453 433,574 434,575 434,585 435,586 435,590 436,591 436,594 437,595 437,598 438,599 438,601 439,602 439,604 440,605 440,606 441,607 441,608 442,609 442,611 444,613 444,614 445,615 445,616 446,617 446,618 448,620 448,621 450,623 450,624 459,633 459,458 460,457 460,451 461,450 461,448 462,447 462,445 463,444 463,442 464,441 464,440 465,439 465,438 466,437 466,436 468,434 468,433 471,430 471,429 479,421 480,421 482,419 483,419 485,417 486,417 487,416 488,416 489,415 490,415 491,414 492,414 493,413 495,413 496,412 498,412 499,411 503,411 504,410 519,410 520,411 523,411 524,412 527,412 528,413 529,413 530,414 532,414 533,415 534,415 536,417 537,417 538,418 539,418 542,421 543,421 552,430 552,431 554,433 554,434 556,436 556,437 557,438 557,439 558,440 558,441 559,442 559,443 560,444 560,446 561,447 561,450 562,451 562,454 563,455 563,633 564,633 573,624 573,623 576,620 576,619 577,618 577,617 579,615 579,614 580,613 580,612 581,611 581,610 582,609 582,608 583,607 583,605 584,604 584,603 585,602 585,600 586,599 586,596 587,595 587,592 588,591 588,587 589,586 589,578 590,577 590,454 589,453 589,444 588,443 588,439 587,438 587,435 586,434 586,432 585,431 585,429 584,428 584,426 583,425 583,424 582,423 582,422 581,421 581,420 580,419 580,417 578,415 578,414 577,413 577,412 575,410 575,409 572,406 572,405 558,391 557,391 555,389 554,389 552,387 551,387 550,386 549,386 548,385 547,385 546,384 545,384 544,383 543,383 542,382 541,382 540,381 539,381 538,380 536,380 535,379 532,379 531,378 528,378 527,377 523,377 522,376"/>
  <polygon fill="#006ab0" points="334,281 333,282 330,282 329,283 327,283 326,284 325,284 323,286 322,286 316,292 316,293 314,295 314,296 313,297 313,298 312,299 312,301 311,302 311,305 310,306 310,587 311,588 311,596 312,597 312,603 313,604 313,608 314,609 314,613 315,614 315,617 316,618 316,621 317,622 317,625 318,626 318,628 319,629 319,631 320,632 320,634 321,635 321,637 322,638 322,639 323,640 323,642 324,643 324,644 325,645 325,647 326,648 326,649 327,650 327,651 328,652 328,653 329,654 329,655 330,656 330,657 331,658 331,659 332,660 332,661 333,662 333,663 335,665 335,666 336,667 336,668 338,670 338,671 339,672 339,673 341,675 341,676 344,679 344,680 347,683 347,684 351,688 351,689 369,707 370,707 374,711 375,711 378,714 379,714 381,716 382,716 384,718 385,718 387,720 388,720 390,722 391,722 392,723 393,723 395,725 396,725 397,726 398,726 399,727 400,727 401,728 402,728 403,729 404,729 405,730 406,730 407,731 408,731 409,732 410,732 411,733 412,733 413,734 415,734 416,735 417,735 418,736 420,736 421,737 422,737 423,738 425,738 426,739 428,739 429,740 431,740 432,741 434,741 435,742 437,742 438,743 441,743 442,744 445,744 446,745 449,745 450,746 453,746 454,747 458,747 459,748 463,748 464,749 469,749 470,750 476,750 477,751 487,751 488,752 537,752 538,751 546,751 547,750 553,750 554,749 560,749 561,748 565,748 566,747 570,747 571,746 574,746 575,745 578,745 579,744 582,744 583,743 585,743 586,742 589,742 590,741 592,741 593,740 595,740 596,739 597,739 598,738 600,738 601,737 603,737 604,736 605,736 606,735 607,735 608,734 610,734 611,733 612,733 613,732 614,732 615,731 616,731 617,730 618,730 619,729 620,729 621,728 622,728 623,727 624,727 625,726 626,726 627,725 628,725 630,723 631,723 632,722 633,722 635,720 636,720 637,719 638,719 641,716 642,716 644,714 645,714 648,711 649,711 653,707 654,707 673,688 673,687 677,683 677,682 680,679 680,678 682,676 682,675 684,673 684,672 686,670 686,669 687,668 687,667 689,665 689,664 690,663 690,662 691,661 691,660 692,659 692,658 693,657 693,656 694,655 694,654 695,653 695,652 696,651 696,650 697,649 697,648 698,647 698,645 699,644 699,643 700,642 700,641 701,640 701,638 702,637 702,635 703,634 703,632 704,631 704,629 705,628 705,626 706,625 706,622 707,621 707,618 708,617 708,614 709,613 709,609 710,608 710,604 711,603 711,598 712,597 712,589 713,588 713,577 714,576 714,312 713,311 713,305 712,304 712,302 711,301 711,299 710,298 710,297 709,296 709,295 708,294 708,293 700,285 699,285 698,284 697,284 696,283 695,283 694,282 691,282 690,281 627,281 626,282 624,282 620,286 620,287 619,288 619,292 618,293 618,437 619,438 619,581 618,582 618,590 617,591 617,596 616,597 616,600 615,601 615,604 614,605 614,608 613,609 613,611 612,612 612,613 611,614 611,616 610,617 610,618 609,619 609,620 608,621 608,622 607,623 607,624 606,625 606,626 605,627 605,628 604,629 604,630 602,632 602,633 601,634 601,635 598,638 598,639 595,642 595,643 578,660 577,660 574,663 573,663 571,665 570,665 568,667 567,667 565,669 564,669 563,670 562,670 561,671 560,671 559,672 558,672 557,673 556,673 555,674 554,674 553,675 551,675 550,676 549,676 548,677 546,677 545,678 543,678 542,679 539,679 538,680 535,680 534,681 529,681 528,682 520,682 519,683 507,683 506,682 496,682 495,681 491,681 490,680 486,680 485,679 482,679 481,678 479,678 478,677 476,677 475,676 474,676 473,675 471,675 470,674 469,674 468,673 467,673 466,672 465,672 464,671 463,671 462,670 461,670 460,669 459,669 457,667 456,667 454,665 453,665 451,663 450,663 448,661 447,661 442,656 441,656 431,646 431,645 427,641 427,640 424,637 424,636 422,634 422,633 420,631 420,630 419,629 419,628 418,627 418,626 416,624 416,623 415,622 415,621 414,620 414,618 413,617 413,616 412,615 412,613 411,612 411,611 410,610 410,607 409,606 409,604 408,603 408,600 407,599 407,596 406,595 406,590 405,589 405,580 404,579 404,424 405,423 405,308 404,307 404,288 403,287 403,286 400,283 399,283 398,282 397,282 396,281"/>
</svg>
